 <svg width="0" height="0" class="hidden">
    <symbol xmlns="http://www.w3.org/2000/svg" viewBox="0 0 24 24" aria-hidden="true"
        id="sun">
        <path
            d="M6.995 12c0 2.761 2.246 5.007 5.007 5.007s5.007-2.246 5.007-5.007-2.246-5.007-5.007-5.007S6.995 9.239 6.995 12zM11 19h2v3h-2zm0-17h2v3h-2zm-9 9h3v2H2zm17 0h3v2h-3zM5.637 19.778l-1.414-1.414 2.121-2.121 1.414 1.414zM16.242 6.344l2.122-2.122 1.414 1.414-2.122 2.122zM6.344 7.759 4.223 5.637l1.415-1.414 2.12 2.122zm13.434 10.605-1.414 1.414-2.122-2.122 1.414-1.414z">
        </path>
    </symbol>
    <symbol xmlns="http://www.w3.org/2000/svg" viewBox="0 0 24 24" aria-hidden="true"
        id="moon">
        <path
            d="M12 11.807A9.002 9.002 0 0 1 10.049 2a9.942 9.942 0 0 0-5.12 2.735c-3.905 3.905-3.905 10.237 0 14.142 3.906 3.906 10.237 3.905 14.143 0a9.946 9.946 0 0 0 2.735-5.119A9.003 9.003 0 0 1 12 11.807z">
        </path>
    </symbol>
    <symbol xmlns="http://www.w3.org/2000/svg" viewBox="0 0 24 24"  aria-hidden="true" 
        id="icon-logo">
        <path
            d="m21.62 11.108-8.731-8.729a1.292 1.292 0 0 0-1.823 0L9.257 4.19l2.299 2.3a1.532 1.532 0 0 1 1.939 1.95l2.214 2.217a1.53 1.53 0 0 1 1.583 2.531c-.599.6-1.566.6-2.166 0a1.536 1.536 0 0 1-.337-1.662l-2.074-2.063V14.9c.146.071.286.169.407.29a1.537 1.537 0 0 1 0 2.166 1.536 1.536 0 0 1-2.174 0 1.528 1.528 0 0 1 0-2.164c.152-.15.322-.264.504-.339v-5.49a1.529 1.529 0 0 1-.83-2.008l-2.26-2.271-5.987 5.982c-.5.504-.5 1.32 0 1.824l8.731 8.729a1.286 1.286 0 0 0 1.821 0l8.69-8.689a1.284 1.284 0 0 0 .003-1.822">
        </path>
    </symbol>
 </svg>